<?xml version="1.0" encoding="UTF-8" standalone="no"?>
<!-- Created with Inkscape (http://www.inkscape.org/) -->

<svg
   version="1.1"
   id="svg1"
   width="500"
   height="500"
   viewBox="0 0 500 500"
   sodipodi:docname="romanoti-logo-master.svg"
   inkscape:export-filename="romanoti-logo-master.png"
   inkscape:export-xdpi="115.2"
   inkscape:export-ydpi="115.2"
   inkscape:version="1.4.3 (0d15f75, 2025-12-25)"
   xmlns:inkscape="http://www.inkscape.org/namespaces/inkscape"
   xmlns:sodipodi="http://sodipodi.sourceforge.net/DTD/sodipodi-0.dtd"
   xmlns="http://www.w3.org/2000/svg"
   xmlns:svg="http://www.w3.org/2000/svg">
  <defs
     id="defs1">
    <rect
       x="112.76332"
       y="743.49442"
       width="400.24783"
       height="110.28501"
       id="rect11" />
  </defs>
  <sodipodi:namedview
     id="namedview1"
     pagecolor="#ffffff"
     bordercolor="#000000"
     borderopacity="0.25"
     inkscape:showpageshadow="2"
     inkscape:pageopacity="0.0"
     inkscape:pagecheckerboard="false"
     inkscape:deskcolor="#d1d1d1"
     inkscape:zoom="1.614"
     inkscape:cx="239.15737"
     inkscape:cy="377.63321"
     inkscape:window-width="1920"
     inkscape:window-height="1009"
     inkscape:window-x="-8"
     inkscape:window-y="-8"
     inkscape:window-maximized="1"
     inkscape:current-layer="g1"
     showguides="true"
     labelstyle="default"
     inkscape:lockguides="false" />
  <g
     inkscape:groupmode="layer"
     inkscape:label="Image"
     id="g1">
    <path
       style="fill:#000000;stroke-width:0.988144"
       d="m 74.507992,496.34406 c -0.659468,-0.42637 -1.199026,-1.8089 -1.199026,-3.07228 0,-1.59143 -0.533722,-2.25196 -1.737382,-2.15018 -2.312221,0.1955 -11.836897,-10.3503 -11.836897,-13.1059 0,-1.53337 -0.554156,-2.09727 -1.939183,-1.97328 -2.315384,0.20727 -7.408659,-6.18468 -6.622865,-8.31155 0.31253,-0.84592 1.969412,-1.46562 4.060224,-1.51859 7.639642,-0.19354 13.243305,0.29298 13.551344,1.17655 0.177758,0.50988 1.704867,0.91328 3.393566,0.89643 2.555115,-0.0255 2.785626,-0.20288 1.373591,-1.0571 -2.004204,-1.21244 -2.300366,-3.39655 -0.355453,-2.62138 0.758667,0.30238 2.618043,-0.96319 4.280417,-2.91344 1.616503,-1.89642 2.635668,-3.44803 2.264809,-3.44803 -0.370859,0 -1.152969,-1.3172 -1.73803,-2.9271 -0.684987,-1.88485 -3.165028,-4.30526 -6.965118,-6.79764 -5.93992,-3.89583 -6.875731,-5.57257 -3.490399,-6.25392 1.009064,-0.20309 2.39126,-1.10944 3.071535,-2.01412 1.141161,-1.51756 1.313515,-1.51231 2.227152,0.0678 0.544648,0.94196 1.635119,2.38241 2.423261,3.20101 0.788152,0.8186 1.432998,1.95854 1.432998,2.53319 0,0.95319 1.522588,4.93023 4.210343,10.99747 0.707753,1.59765 0.71773,2.54847 0.03171,3.02118 -0.550593,0.37939 -2.272256,3.18226 -3.82591,6.22861 -1.553654,3.04635 -3.373665,5.90122 -4.044467,6.34415 -0.670802,0.44294 -1.219639,1.6612 -1.219639,2.70725 0,1.44939 0.634394,1.85679 2.666376,1.71231 2.443807,-0.17377 2.645831,0.0836 2.420285,3.08334 -0.135345,1.80012 0.161427,3.27294 0.659506,3.27294 0.552822,0 0.567861,1.22314 0.03859,3.13981 -0.844495,3.05838 -0.795647,3.12498 1.88376,2.56839 2.066801,-0.42933 3.263499,-0.004 4.813033,1.70863 2.506403,2.77104 2.602034,3.68404 0.365506,3.48938 -0.933231,-0.0813 -2.569417,-0.044 -3.635967,0.0827 l -1.939182,0.23034 1.939182,0.79163 c 1.579512,0.64481 1.262408,0.87464 -1.709749,1.23917 -2.006898,0.24613 -4.188479,0.0987 -4.847956,-0.3277 z m 6.779896,-3.46014 c -0.322186,-0.33465 -1.158458,-0.37042 -1.858377,-0.0796 -0.773481,0.32147 -0.543727,0.56011 0.585788,0.60843 1.022114,0.0437 1.594774,-0.19429 1.272589,-0.52892 z M 66.037031,482.4147 c 0,-0.55388 -0.436316,-1.00706 -0.969592,-1.00706 -0.533275,0 -0.969591,0.45318 -0.969591,1.00706 0,0.55388 0.436316,1.00706 0.969591,1.00706 0.533276,0 0.969592,-0.45318 0.969592,-1.00706 z m 2.908774,-7.55293 c 0,-0.83083 -0.410565,-1.51059 -0.912369,-1.51059 -1.222632,0 -2.098287,1.57261 -1.323651,2.37718 1.091938,1.13414 2.23602,0.69073 2.23602,-0.86659 z m -8.282933,-5.46924 c 0.306808,-0.51561 0.114401,-1.22211 -0.427574,-1.57002 -0.541973,-0.3479 -0.985407,0.0739 -0.985407,0.93748 0,1.76892 0.581808,2.02937 1.412981,0.63254 z m -23.109328,12.47884 c -0.332341,-0.89953 -0.604256,-3.63774 -0.604256,-6.08491 0,-3.94977 0.246273,-4.4494 2.193135,-4.4494 2.078326,0 2.167151,0.29899 1.696785,5.71131 -0.489639,5.63408 -2.108209,8.00997 -3.285664,4.823 z m -5.347995,-2.27559 c -0.674558,-1.30912 -1.07381,-9.02383 -1.07381,-20.74913 0,-16.17752 0.193838,-18.58792 1.454387,-18.08551 0.917345,0.36562 1.454387,-0.0122 1.454387,-1.02309 0,-1.40747 2.14295,-1.60024 17.589029,-1.58225 l 17.589029,0.0206 -2.197329,2.42932 c -1.208531,1.33614 -3.451484,2.71544 -4.98434,3.06512 -4.00656,0.91399 -3.433116,2.48987 0.906038,2.48987 2.031175,0 4.539993,0.68525 5.57515,1.52277 1.703512,1.37828 0.636964,1.50718 -11.239857,1.35847 -8.966799,-0.11228 -13.843968,0.23703 -15.402056,1.10311 -1.481112,0.8233 -1.89235,1.51633 -1.173568,1.97773 1.616315,1.03754 1.254275,15.80897 -0.422904,17.2547 -2.206144,1.90169 -3.119863,0.20035 -2.577332,-4.79897 0.489861,-4.51397 0.42688,-4.68137 -1.146485,-3.0472 -1.291244,1.34114 -1.661105,3.48562 -1.64826,9.55673 0.01862,8.79998 -0.961462,11.88589 -2.702079,8.50783 z m 2.506883,-23.09366 c -0.245834,-0.97983 -0.463137,-0.42199 -0.482898,1.23966 -0.01976,1.66164 0.181377,2.46333 0.44697,1.78151 0.265594,-0.68181 0.281761,-2.04133 0.03592,-3.02117 z m -0.228529,-5.23663 c 0.306809,-0.51562 0.114401,-1.22212 -0.427574,-1.57003 -0.541973,-0.3479 -0.985407,0.0739 -0.985407,0.93748 0,1.76892 0.581808,2.02938 1.412981,0.63255 z m 5.374159,-4.68527 c 0,-1.7784 -2.087297,-1.46869 -2.686576,0.39862 -0.211088,0.65774 0.307038,1.19588 1.15139,1.19588 0.844352,0 1.535186,-0.71753 1.535186,-1.5945 z m 15.998259,-3.44079 c -2.648323,-1.18199 -3.39357,-1.18199 -3.39357,0 0,0.55388 1.199869,0.97521 2.666376,0.93628 2.362744,-0.0627 2.445553,-0.16934 0.727194,-0.93628 z m 26.663762,30.21172 c -119.467192,-1.75807 178.260117,2.62326 0,0 z"
       id="path2"
       sodipodi:nodetypes="sssssssssssssssssssssssssssssscsscsssssssssssssssssssssssssssssssscssssssssssssssssssssssssssssssss" />
    <text
       xml:space="preserve"
       style="font-style:normal;font-variant:normal;font-weight:normal;font-stretch:extra-condensed;font-size:16px;font-family:Algerian;-inkscape-font-specification:'Algerian Extra-Condensed';writing-mode:lr-tb;direction:ltr;fill:none"
       x="103.07806"
       y="452.29248"
       id="text5"
       inkscape:export-filename="text5.png"
       inkscape:export-xdpi="115.2"
       inkscape:export-ydpi="115.2"><tspan
         sodipodi:role="line"
         id="tspan5"
         x="103.07806"
         y="452.29248"
         style="font-style:normal;font-variant:normal;font-weight:bold;font-stretch:semi-condensed;font-size:16px;font-family:'DejaVu Sans';-inkscape-font-specification:'DejaVu Sans Semi-Condensed';fill:#000000;fill-opacity:1">ROMANOTI SOLUTIONS INC</tspan></text>
    <text
       xml:space="preserve"
       style="font-style:normal;font-variant:normal;font-weight:normal;font-stretch:semi-condensed;font-size:21.3333px;font-family:'DejaVu Sans';-inkscape-font-specification:'DejaVu Sans Semi-Condensed';writing-mode:lr-tb;direction:ltr;fill:#000000;fill-opacity:1"
       x="115.24164"
       y="794.29987"
       id="text6"><tspan
         sodipodi:role="line"
         id="tspan6"></tspan></text>
    <text
       xml:space="preserve"
       style="font-style:normal;font-variant:normal;font-weight:normal;font-stretch:semi-condensed;font-size:21.3333px;font-family:'DejaVu Sans';-inkscape-font-specification:'DejaVu Sans Semi-Condensed';writing-mode:lr-tb;direction:ltr;fill:#000000;fill-opacity:1"
       x="48.327137"
       y="843.24658"
       id="text7"><tspan
         sodipodi:role="line"
         id="tspan7"></tspan></text>
    <text
       xml:space="preserve"
       style="font-style:normal;font-variant:normal;font-weight:normal;font-stretch:semi-condensed;font-size:13.3333px;font-family:'DejaVu Sans';-inkscape-font-specification:'DejaVu Sans Semi-Condensed';writing-mode:lr-tb;direction:ltr;fill:#000000;fill-opacity:1"
       x="102.55515"
       y="479.34814"
       id="text8"><tspan
         sodipodi:role="line"
         id="tspan8"
         x="102.55515"
         y="479.34814"
         style="font-style:normal;font-variant:normal;font-weight:bold;font-stretch:normal;font-size:13.3333px;font-family:'DejaVu Sans';-inkscape-font-specification:'DejaVu Sans, Bold';font-variant-ligatures:normal;font-variant-caps:normal;font-variant-numeric:normal;font-variant-east-asian:normal;fill:#555555;fill-opacity:1">Secure Infrastructure. Intelligent Technology.</tspan></text>
    <text
       xml:space="preserve"
       id="text11"
       style="fill:#555555;text-orientation:auto;writing-mode:lr-tb;direction:ltr;-inkscape-font-specification:'DejaVu Sans, Bold';font-family:'DejaVu Sans';font-weight:bold;font-style:normal;font-stretch:normal;font-variant:normal;font-size:14.66666667px;fill-opacity:1;font-variant-ligatures:normal;font-variant-caps:normal;font-variant-numeric:normal;font-variant-east-asian:normal;white-space:pre;shape-inside:url(#rect11)"
       inkscape:export-filename="text5.png"
       inkscape:export-xdpi="115.2"
       inkscape:export-ydpi="115.2" />
  </g>
</svg>
